<?xml version="1.0" encoding="iso-8859-1"?>
<!-- Generator: Adobe Illustrator 18.1.1, SVG Export Plug-In . SVG Version: 6.00 Build 0)  -->
<svg version="1.1" id="Capa_1" xmlns="http://www.w3.org/2000/svg" xmlns:xlink="http://www.w3.org/1999/xlink" x="0px" y="0px"
	 viewBox="0 0 472.79 472.79" style="enable-background:new 0 0 472.79 472.79;" xml:space="preserve">
<g>
	<g>
		<g>
			<path style="fill:#010002;" d="M353.451,213.05h5.34V39.326h-52.722V0H133.443l0.683,6.926c0,7.608-6.21,13.778-13.745,13.794
				l-6.381-0.423v433.749l5.666-0.301c0.317,0,0.634-0.049,0.675-0.073c7.6,0,13.778,6.17,13.778,13.77v5.349h171.936v-27.401
				h52.722v-185.64h-5.324c-12.876,0-23.345-10.494-23.345-23.353C330.105,223.511,340.575,213.05,353.451,213.05z M261.11,436.082
				H152.74v-47.885h108.37V436.082z M261.11,372.516H152.74v-47.885h108.37V372.516z M261.11,305.862H152.74v-47.91h108.37V305.862z
				 M261.11,217.456H152.74v-47.877h108.37V217.456z M261.11,153.89H152.74v-47.894h108.37V153.89z M261.11,87.22H152.74V39.326
				h108.37V87.22z M348.11,269.991v164.717h-42.041v-31.165h31.01v-10.681h-31.01v-11.803h31.01v-10.665h-31.01v-11.437h31.01
				v-10.681h-31.01v-10.242h31.01v-10.681h-31.01v-11.803h31.01V304.87h-31.01v-11.404h31.01v-10.681h-31.01v-87.382h31.01v-10.681
				h-31.01v-11.811h31.01v-10.673h-31.01v-11.421h31.01v-10.673h-31.01v-10.266h31.01v-10.681h-31.01v-11.795h31.01V96.722h-31.01
				V85.309h31.01V74.628h-31.01V50.023h42.041v152.744c-16.493,2.593-28.702,16.704-28.702,33.636
				C319.408,253.319,331.617,267.414,348.11,269.991z"/>
		</g>
	</g>
</g>
<g>
</g>
<g>
</g>
<g>
</g>
<g>
</g>
<g>
</g>
<g>
</g>
<g>
</g>
<g>
</g>
<g>
</g>
<g>
</g>
<g>
</g>
<g>
</g>
<g>
</g>
<g>
</g>
<g>
</g>
</svg>
